<svg width="250" height="62" viewBox="0 0 250 62" fill="none" xmlns="http://www.w3.org/2000/svg">
<path d="M142.071 15.3857C145.369 15.3857 148.6 15.3857 151.959 15.3857C151.959 16.3323 151.959 17.206 151.959 18.0671C152.187 18.0861 152.325 18.1399 152.383 18.0924C159.697 12.2675 169.279 13.4483 174.866 20.8719C181 29.0204 179.071 41.3697 170.874 46.9571C166.38 50.0184 158.096 51.3068 152.065 45.6497C152.065 51.1738 152.065 56.5302 152.065 61.9973C148.654 61.9973 145.423 61.9973 142.067 61.9973C142.071 46.4665 142.071 30.9736 142.071 15.3857ZM168.418 31.9834C168.418 26.9943 165.129 23.7115 160.153 23.7305C155.264 23.7495 152.001 27.0228 151.988 31.9233C151.972 36.9662 155.18 40.2206 160.172 40.2237C165.203 40.2301 168.421 37.0137 168.418 31.9834Z" fill="white"/>
<path d="M136.432 35.9815C128.434 35.9815 120.529 35.9815 112.621 35.9815C112.711 40.1318 121.497 43.136 127.3 38.3653C129.852 39.8089 132.437 41.2682 135.371 42.9239C133.89 44.2503 132.681 45.5831 131.234 46.5834C124.152 51.4681 112.57 50.3664 106.504 44.3136C101.299 39.1219 100.094 30.3434 103.653 23.5404C106.999 17.1425 114.496 13.5083 121.937 14.5023C134.002 16.1137 138.548 27.5735 136.432 35.9815ZM126.801 28.501C126.133 25.0947 123.294 23.075 119.369 23.132C115.614 23.189 112.798 25.3005 112.294 28.501C117.132 28.501 121.957 28.501 126.801 28.501Z" fill="white"/>
<path d="M232.19 39.7324C230.156 42.5625 228.333 45.152 226.436 47.6846C226.108 48.1214 225.472 48.59 224.964 48.5995C221.547 48.6786 218.126 48.6406 214.388 48.6406C214.802 48.0138 215.082 47.5579 215.394 47.1242C218.805 42.3631 222.196 37.5892 225.658 32.866C226.308 31.9828 226.275 31.4256 225.636 30.5519C222.296 25.9996 219.033 21.3904 215.751 16.797C215.458 16.3886 215.207 15.9486 214.796 15.2964C218.564 15.2964 222.067 15.2616 225.571 15.3408C226.015 15.3503 226.549 15.8916 226.861 16.3126C228.613 18.6837 230.313 21.096 232.187 23.714C233.907 21.3112 235.585 19.0984 237.106 16.7875C237.855 15.6478 238.681 15.2015 240.086 15.2553C243.165 15.3756 246.251 15.2933 249.591 15.2933C249.154 15.9739 248.874 16.4551 248.55 16.9078C245.325 21.4125 242.14 25.9458 238.835 30.3936C238.047 31.4541 238.154 32.1062 238.883 33.1003C242.288 37.7348 245.608 42.4295 248.958 47.1053C249.257 47.5231 249.537 47.9568 249.993 48.6248C246.158 48.6248 242.554 48.6564 238.957 48.5805C238.578 48.571 238.138 47.9916 237.848 47.5896C235.99 45.0444 234.161 42.4739 232.19 39.7324Z" fill="white"/>
<path d="M73.1137 21.4882C70.3009 22.9792 67.5813 24.4227 64.7396 25.9264C63.5309 23.9701 61.8689 22.8272 59.4483 23.0963C58.3713 23.2166 57.3941 23.5079 57.1626 24.6918C56.928 25.8885 57.8377 26.4013 58.77 26.7179C60.3323 27.2465 61.9525 27.6106 63.5148 28.1424C65.3278 28.7597 67.2148 29.2852 68.8768 30.1906C75.1132 33.5874 75.7176 42.3627 70.092 46.6459C63.788 51.445 51.9903 50.3592 47.0526 44.4964C46.3871 43.7049 45.8696 42.7964 45.1816 41.796C48.1713 40.1246 50.9841 38.5512 53.7937 36.981C55.8671 40.2259 57.9213 41.2769 61.1102 40.7197C62.1711 40.5361 63.293 40.2828 63.4987 38.9849C63.7141 37.6078 62.634 37.1583 61.6181 36.8164C59.7504 36.1928 57.8281 35.7147 55.9604 35.0879C54.6006 34.6321 53.2311 34.1382 51.9645 33.4766C46.4418 30.5927 45.0273 23.7991 48.8849 18.9556C54.5459 11.8518 68.8543 13.251 73.1137 21.4882Z" fill="white"/>
<path d="M97.963 39.8334C97.963 42.7964 97.963 45.6139 97.963 48.6466C93.4625 49.0645 88.9845 49.457 84.9405 46.9498C82.0441 45.1549 81.1954 42.176 81.0668 39.0451C80.8964 34.9044 80.935 30.7542 80.8868 26.6103C80.8803 26.0468 80.8868 25.4833 80.8868 24.7868C79.0769 24.7868 77.4375 24.7868 75.6533 24.7868C75.6533 21.6022 75.6533 18.5473 75.6533 15.2961C77.3442 15.2961 79.0255 15.2961 80.8868 15.2961C80.8868 13.441 80.8353 11.7727 80.9189 10.1107C80.9414 9.63903 81.2565 8.88559 81.6101 8.77163C84.6447 7.79343 87.7211 6.93236 90.984 5.97949C90.984 9.15151 90.984 12.1209 90.984 15.2423C93.3564 15.2423 95.5777 15.2423 97.9148 15.2423C97.9148 18.4175 97.9148 21.4344 97.9148 24.6824C95.7127 24.6824 93.4528 24.6824 90.9808 24.6824C90.9808 26.8794 90.9808 28.8548 90.9808 30.8301C90.9808 32.7739 90.9551 34.7144 90.9904 36.6582C91.0258 38.4658 91.6719 39.2224 93.4786 39.5864C94.2083 39.7321 94.9605 39.7795 95.7063 39.8207C96.4007 39.8619 97.095 39.8334 97.963 39.8334Z" fill="white"/>
<path d="M192.921 48.5933C189.542 48.5933 186.341 48.5933 183.017 48.5933C183.017 32.4071 183.017 16.2653 183.017 0C186.273 0 189.549 0 192.921 0C192.921 16.1735 192.921 32.3122 192.921 48.5933Z" fill="white"/>
<path d="M199.761 48.5142C199.761 37.4818 199.761 26.4873 199.761 15.3916C203.072 15.3916 206.299 15.3916 209.646 15.3916C209.646 26.4082 209.646 37.3963 209.646 48.5142C206.399 48.5142 203.126 48.5142 199.761 48.5142Z" fill="white"/>
<path d="M210.729 6.2676C210.716 9.45229 207.945 12.1621 204.692 12.1716C201.464 12.1779 198.639 9.44912 198.6 6.28343C198.558 3.14624 201.586 0.186318 204.763 0.259129C207.987 0.328774 210.742 3.10192 210.729 6.2676Z" fill="white"/>
<path d="M39.2995 15.1484H19.5391V24.8228H39.2995V15.1484Z" fill="#0062FF"/>
<path d="M39.2962 27.1201H9.60254V36.7945H39.2962V27.1201Z" fill="#EA5141"/>
<path d="M39.2959 39.0898H0V48.7642H39.2959V39.0898Z" fill="#FFD332"/>
</svg>